ffmpeg started on 2026-03-22 at 16:50:17
Report written to "D:\Convert\FFMetrics\reports\ssim_report-6.txt"
Log level: 32
Command line:
ffmpeg -hide_banner -nostdin -r 24000/1001 -i "F:\\Convert\\files\\[DC] Make Heroine ga Oosugiru - 07_Telegram_HEVC(225).mkv" -r 24000/1001 -i "F:\\Convert\\files\\[DC] Make Heroine ga Oosugiru - 07_Telegram.mp4" -lavfi "[0:v]settb=AVTB,setpts=PTS-STARTPTS,format=pix_fmts=yuv420p10le,fps=24000/1001,scale=1920:1080:flags=lanczos:param0=3:out_range=limited:out_color_matrix=bt709:out_chroma_loc=left,setsar=1/1,setdar=(1920/1080)*(1/1),colorspace=format=yuv420p10:range=tv:primaries=bt709:trc=bt709:space=bt709:fast=0[main];[1:v]settb=AVTB,setpts=PTS-STARTPTS,format=pix_fmts=yuv420p,fps=24000/1001,scale=1920:1080:flags=lanczos:param0=3:out_range=limited:out_color_matrix=bt709:out_chroma_loc=left,setsar=1.000,setdar=1.778,colorspace=format=yuv420p:range=tv:primaries=bt709:trc=bt709:space=bt709:fast=0[ref];[main][ref]ssim=eof_action=endall:stats_file='D\\:/Convert/FFMetrics/logs/ssim_logfile-6.txt'" -f null -
Input #0, matroska,webm, from 'F:\Convert\files\[DC] Make Heroine ga Oosugiru - 07_Telegram_HEVC(225).mkv':
  Metadata:
    COMPATIBLE_BRANDS: isomiso2avc1mp41
    MAJOR_BRAND     : isom
    MINOR_VERSION   : 512
    ENCODER         : Lavf61.7.100
  Duration: 00:24:06.79, start: -0.021000, bitrate: 983 kb/s
  Stream #0:0: Video: hevc (Main 10), yuv420p10le(tv, bt709, progressive), 1920x1080 [SAR 1:1 DAR 16:9], 23.98 fps, 23.98 tbr, 1k tbn (default)
      Metadata:
        HANDLER_NAME    : VideoHandler
        VENDOR_ID       : [0][0][0][0]
        ENCODER         : Lavc61.19.100 libx265
        BPS             : 786007
        DURATION        : 00:24:06.569708333
        NUMBER_OF_FRAMES: 34683
        NUMBER_OF_BYTES : 142126819
        _STATISTICS_WRITING_APP: mkvpropedit v94.0 ('Initiate') 64-bit
        _STATISTICS_WRITING_DATE_UTC: 2026-03-21 12:11:14
        _STATISTICS_TAGS: BPS DURATION NUMBER_OF_FRAMES NUMBER_OF_BYTES
  Stream #0:1: Audio: aac (LC), 48000 Hz, stereo, fltp (default)
      Metadata:
        HANDLER_NAME    : SoundHandler
        VENDOR_ID       : [0][0][0][0]
        ENCODER         : Lavc61.19.100 aac
        BPS             : 193194
        DURATION        : 00:24:06.784000000
        NUMBER_OF_FRAMES: 67819
        NUMBER_OF_BYTES : 34938755
        _STATISTICS_WRITING_APP: mkvpropedit v94.0 ('Initiate') 64-bit
        _STATISTICS_WRITING_DATE_UTC: 2026-03-21 12:11:14
        _STATISTICS_TAGS: BPS DURATION NUMBER_OF_FRAMES NUMBER_OF_BYTES
Input #1, mov,mp4,m4a,3gp,3g2,mj2, from 'F:\Convert\files\[DC] Make Heroine ga Oosugiru - 07_Telegram.mp4':
  Metadata:
    major_brand     : isom
    minor_version   : 512
    compatible_brands: isomiso2avc1mp41
    encoder         : Lavf60.16.100
  Duration: 00:24:06.74, start: 0.000000, bitrate: 3764 kb/s
  Stream #1:0[0x1](und): Video: h264 (High) (avc1 / 0x31637661), yuv420p(tv, bt709, progressive), 1920x1080 [SAR 1:1 DAR 16:9], 3616 kb/s, 23.98 fps, 23.98 tbr, 24k tbn (default)
      Metadata:
        handler_name    : VideoHandler
        vendor_id       : [0][0][0][0]
        encoder         : Lavc60.31.102 h264_qsv
  Stream #1:1[0x2](und): Audio: aac (HE-AACv2) (mp4a / 0x6134706D), 48000 Hz, stereo, fltp, 144 kb/s (default)
      Metadata:
        handler_name    : SoundHandler
        vendor_id       : [0][0][0][0]
Stream mapping:
  Stream #0:0 (hevc) -> settb:default
  Stream #1:0 (h264) -> settb:default
  ssim:default -> Stream #0:0 (wrapped_avframe)
  Stream #0:1 -> #0:1 (aac (native) -> pcm_s16le (native))
Output #0, null, to 'pipe:':
  Metadata:
    COMPATIBLE_BRANDS: isomiso2avc1mp41
    MAJOR_BRAND     : isom
    MINOR_VERSION   : 512
    encoder         : Lavf61.7.100
  Stream #0:0: Video: wrapped_avframe, yuv420p10le(tv, bt709, progressive), 1920x1080 [SAR 1:1 DAR 16:9], q=2-31, 200 kb/s, 23.98 fps, 23.98 tbn
      Metadata:
        encoder         : Lavc61.19.100 wrapped_avframe
  Stream #0:1: Audio: pcm_s16le, 48000 Hz, stereo, s16, 1536 kb/s (default)
      Metadata:
        HANDLER_NAME    : SoundHandler
        VENDOR_ID       : [0][0][0][0]
        _STATISTICS_TAGS: BPS DURATION NUMBER_OF_FRAMES NUMBER_OF_BYTES
        BPS             : 193194
        DURATION        : 00:24:06.784000000
        NUMBER_OF_FRAMES: 67819
        NUMBER_OF_BYTES : 34938755
        _STATISTICS_WRITING_APP: mkvpropedit v94.0 ('Initiate') 64-bit
        _STATISTICS_WRITING_DATE_UTC: 2026-03-21 12:11:14
        encoder         : Lavc61.19.100 pcm_s16le
frame=  132 fps=0.0 q=-0.0 size=N/A time=00:00:05.50 bitrate=N/A speed=10.7x    frame=  315 fps=308 q=-0.0 size=N/A time=00:00:13.13 bitrate=N/A speed=12.8x    frame=  507 fps=327 q=-0.0 size=N/A time=00:00:21.14 bitrate=N/A speed=13.7x    frame=  697 fps=338 q=-0.0 size=N/A time=00:00:29.07 bitrate=N/A speed=14.1x    frame=  879 fps=342 q=-0.0 size=N/A time=00:00:36.66 bitrate=N/A speed=14.3x    frame= 1020 fps=329 q=-0.0 size=N/A time=00:00:42.54 bitrate=N/A speed=13.7x    frame= 1186 fps=327 q=-0.0 size=N/A time=00:00:49.46 bitrate=N/A speed=13.6x    frame= 1348 fps=326 q=-0.0 size=N/A time=00:00:56.22 bitrate=N/A speed=13.6x    frame= 1508 fps=324 q=-0.0 size=N/A time=00:01:02.89 bitrate=N/A speed=13.5x    frame= 1651 fps=319 q=-0.0 size=N/A time=00:01:08.86 bitrate=N/A speed=13.3x    frame= 1816 fps=319 q=-0.0 size=N/A time=00:01:15.74 bitrate=N/A speed=13.3x    frame= 1979 fps=319 q=-0.0 size=N/A time=00:01:22.54 bitrate=N/A speed=13.3x    frame= 2096 fps=312 q=-0.0 size=N/A time=00:01:27.42 bitrate=N/A speed=  13x    frame= 2244 fps=310 q=-0.0 size=N/A time=00:01:33.59 bitrate=N/A speed=12.9x    frame= 2394 fps=309 q=-0.0 size=N/A time=00:01:39.84 bitrate=N/A speed=12.9x    frame= 2525 fps=306 q=-0.0 size=N/A time=00:01:45.31 bitrate=N/A speed=12.7x    frame= 2680 fps=305 q=-0.0 size=N/A time=00:01:51.77 bitrate=N/A speed=12.7x    frame= 2860 fps=308 q=-0.0 size=N/A time=00:01:59.28 bitrate=N/A speed=12.8x    frame= 3035 fps=309 q=-0.0 size=N/A time=00:02:06.58 bitrate=N/A speed=12.9x    frame= 3222 fps=312 q=-0.0 size=N/A time=00:02:14.38 bitrate=N/A speed=  13x    frame= 3413 fps=315 q=-0.0 size=N/A time=00:02:22.35 bitrate=N/A speed=13.1x    frame= 3602 fps=317 q=-0.0 size=N/A time=00:02:30.23 bitrate=N/A speed=13.2x    frame= 3792 fps=319 q=-0.0 size=N/A time=00:02:38.15 bitrate=N/A speed=13.3x    frame= 3982 fps=321 q=-0.0 size=N/A time=00:02:46.08 bitrate=N/A speed=13.4x    frame= 4166 fps=323 q=-0.0 size=N/A time=00:02:53.75 bitrate=N/A speed=13.5x    frame= 4363 fps=325 q=-0.0 size=N/A time=00:03:01.97 bitrate=N/A speed=13.6x    frame= 4543 fps=326 q=-0.0 size=N/A time=00:03:09.48 bitrate=N/A speed=13.6x    frame= 4729 fps=327 q=-0.0 size=N/A time=00:03:17.23 bitrate=N/A speed=13.7x    frame= 4917 fps=329 q=-0.0 size=N/A time=00:03:25.07 bitrate=N/A speed=13.7x    frame= 5119 fps=331 q=-0.0 size=N/A time=00:03:33.50 bitrate=N/A speed=13.8x    frame= 5303 fps=331 q=-0.0 size=N/A time=00:03:41.17 bitrate=N/A speed=13.8x    frame= 5491 fps=333 q=-0.0 size=N/A time=00:03:49.02 bitrate=N/A speed=13.9x    frame= 5681 fps=334 q=-0.0 size=N/A time=00:03:56.94 bitrate=N/A speed=13.9x    frame= 5867 fps=334 q=-0.0 size=N/A time=00:04:04.70 bitrate=N/A speed=13.9x    frame= 6059 fps=335 q=-0.0 size=N/A time=00:04:12.71 bitrate=N/A speed=  14x    frame= 6243 fps=336 q=-0.0 size=N/A time=00:04:20.38 bitrate=N/A speed=  14x    frame= 6431 fps=337 q=-0.0 size=N/A time=00:04:28.22 bitrate=N/A speed=14.1x    frame= 6625 fps=338 q=-0.0 size=N/A time=00:04:36.31 bitrate=N/A speed=14.1x    frame= 6813 fps=339 q=-0.0 size=N/A time=00:04:44.15 bitrate=N/A speed=14.1x    frame= 7001 fps=339 q=-0.0 size=N/A time=00:04:52.00 bitrate=N/A speed=14.2x    frame= 7182 fps=340 q=-0.0 size=N/A time=00:04:59.54 bitrate=N/A speed=14.2x    frame= 7369 fps=340 q=-0.0 size=N/A time=00:05:07.34 bitrate=N/A speed=14.2x    frame= 7553 fps=340 q=-0.0 size=N/A time=00:05:15.02 bitrate=N/A speed=14.2x    frame= 7733 fps=341 q=-0.0 size=N/A time=00:05:22.53 bitrate=N/A speed=14.2x    frame= 7926 fps=341 q=-0.0 size=N/A time=00:05:30.58 bitrate=N/A speed=14.2x    frame= 8117 fps=342 q=-0.0 size=N/A time=00:05:38.54 bitrate=N/A speed=14.3x    frame= 8301 fps=342 q=-0.0 size=N/A time=00:05:46.22 bitrate=N/A speed=14.3x    frame= 8486 fps=343 q=-0.0 size=N/A time=00:05:53.93 bitrate=N/A speed=14.3x    frame= 8673 fps=343 q=-0.0 size=N/A time=00:06:01.73 bitrate=N/A speed=14.3x    frame= 8860 fps=343 q=-0.0 size=N/A time=00:06:09.53 bitrate=N/A speed=14.3x    frame= 9046 fps=344 q=-0.0 size=N/A time=00:06:17.29 bitrate=N/A speed=14.3x    frame= 9225 fps=344 q=-0.0 size=N/A time=00:06:24.75 bitrate=N/A speed=14.3x    frame= 9417 fps=344 q=-0.0 size=N/A time=00:06:32.76 bitrate=N/A speed=14.4x    frame= 9606 fps=344 q=-0.0 size=N/A time=00:06:40.65 bitrate=N/A speed=14.4x    frame= 9796 fps=345 q=-0.0 size=N/A time=00:06:48.57 bitrate=N/A speed=14.4x    frame= 9979 fps=345 q=-0.0 size=N/A time=00:06:56.20 bitrate=N/A speed=14.4x    frame=10165 fps=345 q=-0.0 size=N/A time=00:07:03.96 bitrate=N/A speed=14.4x    frame=10349 fps=346 q=-0.0 size=N/A time=00:07:11.63 bitrate=N/A speed=14.4x    frame=10534 fps=346 q=-0.0 size=N/A time=00:07:19.35 bitrate=N/A speed=14.4x    frame=10716 fps=346 q=-0.0 size=N/A time=00:07:26.94 bitrate=N/A speed=14.4x    frame=10903 fps=346 q=-0.0 size=N/A time=00:07:34.74 bitrate=N/A speed=14.4x    frame=11087 fps=346 q=-0.0 size=N/A time=00:07:42.42 bitrate=N/A speed=14.4x    frame=11268 fps=346 q=-0.0 size=N/A time=00:07:49.96 bitrate=N/A speed=14.4x    frame=11455 fps=347 q=-0.0 size=N/A time=00:07:57.76 bitrate=N/A speed=14.5x    frame=11646 fps=347 q=-0.0 size=N/A time=00:08:05.73 bitrate=N/A speed=14.5x    frame=11831 fps=347 q=-0.0 size=N/A time=00:08:13.45 bitrate=N/A speed=14.5x    frame=12015 fps=347 q=-0.0 size=N/A time=00:08:21.12 bitrate=N/A speed=14.5x    frame=12207 fps=348 q=-0.0 size=N/A time=00:08:29.13 bitrate=N/A speed=14.5x    frame=12398 fps=348 q=-0.0 size=N/A time=00:08:37.09 bitrate=N/A speed=14.5x    frame=12585 fps=348 q=-0.0 size=N/A time=00:08:44.89 bitrate=N/A speed=14.5x    frame=12770 fps=348 q=-0.0 size=N/A time=00:08:52.61 bitrate=N/A speed=14.5x    frame=12965 fps=349 q=-0.0 size=N/A time=00:09:00.74 bitrate=N/A speed=14.5x    frame=13151 fps=349 q=-0.0 size=N/A time=00:09:08.50 bitrate=N/A speed=14.6x    frame=13330 fps=349 q=-0.0 size=N/A time=00:09:15.97 bitrate=N/A speed=14.6x    frame=13519 fps=349 q=-0.0 size=N/A time=00:09:23.85 bitrate=N/A speed=14.6x    frame=13704 fps=349 q=-0.0 size=N/A time=00:09:31.57 bitrate=N/A speed=14.6x    frame=13889 fps=349 q=-0.0 size=N/A time=00:09:39.28 bitrate=N/A speed=14.6x    frame=14078 fps=349 q=-0.0 size=N/A time=00:09:47.16 bitrate=N/A speed=14.6x    frame=14255 fps=349 q=-0.0 size=N/A time=00:09:54.55 bitrate=N/A speed=14.6x    frame=14438 fps=350 q=-0.0 size=N/A time=00:10:02.18 bitrate=N/A speed=14.6x    frame=14623 fps=350 q=-0.0 size=N/A time=00:10:09.90 bitrate=N/A speed=14.6x    frame=14812 fps=350 q=-0.0 size=N/A time=00:10:17.78 bitrate=N/A speed=14.6x    frame=14997 fps=350 q=-0.0 size=N/A time=00:10:25.49 bitrate=N/A speed=14.6x    frame=15160 fps=350 q=-0.0 size=N/A time=00:10:32.29 bitrate=N/A speed=14.6x    frame=15334 fps=349 q=-0.0 size=N/A time=00:10:39.55 bitrate=N/A speed=14.6x    frame=15518 fps=350 q=-0.0 size=N/A time=00:10:47.22 bitrate=N/A speed=14.6x    frame=15710 fps=350 q=-0.0 size=N/A time=00:10:55.23 bitrate=N/A speed=14.6x    frame=15899 fps=350 q=-0.0 size=N/A time=00:11:03.12 bitrate=N/A speed=14.6x    frame=16081 fps=350 q=-0.0 size=N/A time=00:11:10.71 bitrate=N/A speed=14.6x    frame=16271 fps=350 q=-0.0 size=N/A time=00:11:18.63 bitrate=N/A speed=14.6x    frame=16458 fps=350 q=-0.0 size=N/A time=00:11:26.43 bitrate=N/A speed=14.6x    frame=16645 fps=350 q=-0.0 size=N/A time=00:11:34.23 bitrate=N/A speed=14.6x    frame=16829 fps=351 q=-0.0 size=N/A time=00:11:41.90 bitrate=N/A speed=14.6x    frame=17020 fps=351 q=-0.0 size=N/A time=00:11:49.87 bitrate=N/A speed=14.6x    frame=17203 fps=351 q=-0.0 size=N/A time=00:11:57.50 bitrate=N/A speed=14.6x    frame=17397 fps=351 q=-0.0 size=N/A time=00:12:05.59 bitrate=N/A speed=14.6x    frame=17580 fps=351 q=-0.0 size=N/A time=00:12:13.23 bitrate=N/A speed=14.6x    frame=17765 fps=351 q=-0.0 size=N/A time=00:12:20.94 bitrate=N/A speed=14.6x    frame=17952 fps=351 q=-0.0 size=N/A time=00:12:28.74 bitrate=N/A speed=14.6x    frame=18142 fps=351 q=-0.0 size=N/A time=00:12:36.67 bitrate=N/A speed=14.7x    frame=18315 fps=351 q=-0.0 size=N/A time=00:12:43.88 bitrate=N/A speed=14.6x    frame=18502 fps=351 q=-0.0 size=N/A time=00:12:51.68 bitrate=N/A speed=14.7x    frame=18689 fps=351 q=-0.0 size=N/A time=00:12:59.48 bitrate=N/A speed=14.7x    frame=18877 fps=352 q=-0.0 size=N/A time=00:13:07.32 bitrate=N/A speed=14.7x    frame=19064 fps=352 q=-0.0 size=N/A time=00:13:15.12 bitrate=N/A speed=14.7x    frame=19256 fps=352 q=-0.0 size=N/A time=00:13:23.13 bitrate=N/A speed=14.7x    frame=19443 fps=352 q=-0.0 size=N/A time=00:13:30.93 bitrate=N/A speed=14.7x    frame=19629 fps=352 q=-0.0 size=N/A time=00:13:38.69 bitrate=N/A speed=14.7x    frame=19818 fps=352 q=-0.0 size=N/A time=00:13:46.57 bitrate=N/A speed=14.7x    frame=20011 fps=352 q=-0.0 size=N/A time=00:13:54.62 bitrate=N/A speed=14.7x    frame=20198 fps=352 q=-0.0 size=N/A time=00:14:02.42 bitrate=N/A speed=14.7x    frame=20380 fps=352 q=-0.0 size=N/A time=00:14:10.01 bitrate=N/A speed=14.7x    frame=20564 fps=352 q=-0.0 size=N/A time=00:14:17.69 bitrate=N/A speed=14.7x    frame=20743 fps=352 q=-0.0 size=N/A time=00:14:25.15 bitrate=N/A speed=14.7x    frame=20924 fps=352 q=-0.0 size=N/A time=00:14:32.70 bitrate=N/A speed=14.7x    frame=21114 fps=353 q=-0.0 size=N/A time=00:14:40.62 bitrate=N/A speed=14.7x    frame=21304 fps=353 q=-0.0 size=N/A time=00:14:48.55 bitrate=N/A speed=14.7x    frame=21491 fps=353 q=-0.0 size=N/A time=00:14:56.35 bitrate=N/A speed=14.7x    frame=21678 fps=353 q=-0.0 size=N/A time=00:15:04.15 bitrate=N/A speed=14.7x    frame=21865 fps=353 q=-0.0 size=N/A time=00:15:11.95 bitrate=N/A speed=14.7x    frame=22055 fps=353 q=-0.0 size=N/A time=00:15:19.87 bitrate=N/A speed=14.7x    frame=22239 fps=353 q=-0.0 size=N/A time=00:15:27.55 bitrate=N/A speed=14.7x    frame=22428 fps=353 q=-0.0 size=N/A time=00:15:35.43 bitrate=N/A speed=14.7x    frame=22616 fps=353 q=-0.0 size=N/A time=00:15:43.27 bitrate=N/A speed=14.7x    frame=22803 fps=353 q=-0.0 size=N/A time=00:15:51.07 bitrate=N/A speed=14.7x    frame=22995 fps=353 q=-0.0 size=N/A time=00:15:59.08 bitrate=N/A speed=14.7x    frame=23180 fps=353 q=-0.0 size=N/A time=00:16:06.79 bitrate=N/A speed=14.7x    frame=23369 fps=354 q=-0.0 size=N/A time=00:16:14.68 bitrate=N/A speed=14.7x    frame=23557 fps=354 q=-0.0 size=N/A time=00:16:22.52 bitrate=N/A speed=14.7x    frame=23752 fps=354 q=-0.0 size=N/A time=00:16:30.65 bitrate=N/A speed=14.8x    frame=23933 fps=354 q=-0.0 size=N/A time=00:16:38.20 bitrate=N/A speed=14.8x    frame=24122 fps=354 q=-0.0 size=N/A time=00:16:46.08 bitrate=N/A speed=14.8x    frame=24309 fps=354 q=-0.0 size=N/A time=00:16:53.88 bitrate=N/A speed=14.8x    frame=24498 fps=354 q=-0.0 size=N/A time=00:17:01.77 bitrate=N/A speed=14.8x    frame=24680 fps=354 q=-0.0 size=N/A time=00:17:09.36 bitrate=N/A speed=14.8x    frame=24871 fps=354 q=-0.0 size=N/A time=00:17:17.32 bitrate=N/A speed=14.8x    frame=25059 fps=354 q=-0.0 size=N/A time=00:17:25.16 bitrate=N/A speed=14.8x    frame=25248 fps=354 q=-0.0 size=N/A time=00:17:33.05 bitrate=N/A speed=14.8x    frame=25429 fps=354 q=-0.0 size=N/A time=00:17:40.60 bitrate=N/A speed=14.8x    frame=25622 fps=354 q=-0.0 size=N/A time=00:17:48.65 bitrate=N/A speed=14.8x    frame=25809 fps=354 q=-0.0 size=N/A time=00:17:56.45 bitrate=N/A speed=14.8x    frame=25997 fps=355 q=-0.0 size=N/A time=00:18:04.29 bitrate=N/A speed=14.8x    frame=26180 fps=355 q=-0.0 size=N/A time=00:18:11.92 bitrate=N/A speed=14.8x    frame=26366 fps=355 q=-0.0 size=N/A time=00:18:19.68 bitrate=N/A speed=14.8x    frame=26553 fps=355 q=-0.0 size=N/A time=00:18:27.48 bitrate=N/A speed=14.8x    frame=26744 fps=355 q=-0.0 size=N/A time=00:18:35.44 bitrate=N/A speed=14.8x    frame=26924 fps=355 q=-0.0 size=N/A time=00:18:42.95 bitrate=N/A speed=14.8x    frame=27108 fps=355 q=-0.0 size=N/A time=00:18:50.62 bitrate=N/A speed=14.8x    frame=27289 fps=355 q=-0.0 size=N/A time=00:18:58.17 bitrate=N/A speed=14.8x    frame=27481 fps=355 q=-0.0 size=N/A time=00:19:06.18 bitrate=N/A speed=14.8x    frame=27664 fps=355 q=-0.0 size=N/A time=00:19:13.81 bitrate=N/A speed=14.8x    frame=27847 fps=355 q=-0.0 size=N/A time=00:19:21.45 bitrate=N/A speed=14.8x    frame=28035 fps=355 q=-0.0 size=N/A time=00:19:29.29 bitrate=N/A speed=14.8x    frame=28219 fps=355 q=-0.0 size=N/A time=00:19:36.96 bitrate=N/A speed=14.8x    frame=28400 fps=355 q=-0.0 size=N/A time=00:19:44.51 bitrate=N/A speed=14.8x    frame=28588 fps=355 q=-0.0 size=N/A time=00:19:52.35 bitrate=N/A speed=14.8x    frame=28767 fps=355 q=-0.0 size=N/A time=00:19:59.82 bitrate=N/A speed=14.8x    frame=28941 fps=355 q=-0.0 size=N/A time=00:20:07.08 bitrate=N/A speed=14.8x    frame=29115 fps=355 q=-0.0 size=N/A time=00:20:14.33 bitrate=N/A speed=14.8x    frame=29291 fps=355 q=-0.0 size=N/A time=00:20:21.67 bitrate=N/A speed=14.8x    frame=29466 fps=354 q=-0.0 size=N/A time=00:20:28.97 bitrate=N/A speed=14.8x    frame=29638 fps=354 q=-0.0 size=N/A time=00:20:36.15 bitrate=N/A speed=14.8x    frame=29815 fps=354 q=-0.0 size=N/A time=00:20:43.53 bitrate=N/A speed=14.8x    frame=29984 fps=354 q=-0.0 size=N/A time=00:20:50.58 bitrate=N/A speed=14.8x    frame=30156 fps=354 q=-0.0 size=N/A time=00:20:57.75 bitrate=N/A speed=14.8x    frame=30342 fps=354 q=-0.0 size=N/A time=00:21:05.51 bitrate=N/A speed=14.8x    frame=30519 fps=354 q=-0.0 size=N/A time=00:21:12.89 bitrate=N/A speed=14.8x    frame=30714 fps=354 q=-0.0 size=N/A time=00:21:21.02 bitrate=N/A speed=14.8x    frame=30899 fps=354 q=-0.0 size=N/A time=00:21:28.74 bitrate=N/A speed=14.8x    frame=31081 fps=354 q=-0.0 size=N/A time=00:21:36.33 bitrate=N/A speed=14.8x    frame=31269 fps=354 q=-0.0 size=N/A time=00:21:44.17 bitrate=N/A speed=14.8x    frame=31452 fps=354 q=-0.0 size=N/A time=00:21:51.81 bitrate=N/A speed=14.8x    frame=31637 fps=354 q=-0.0 size=N/A time=00:21:59.52 bitrate=N/A speed=14.8x    frame=31811 fps=354 q=-0.0 size=N/A time=00:22:06.78 bitrate=N/A speed=14.8x    frame=31996 fps=354 q=-0.0 size=N/A time=00:22:14.49 bitrate=N/A speed=14.8x    frame=32178 fps=354 q=-0.0 size=N/A time=00:22:22.09 bitrate=N/A speed=14.8x    frame=32361 fps=354 q=-0.0 size=N/A time=00:22:29.72 bitrate=N/A speed=14.8x    frame=32555 fps=354 q=-0.0 size=N/A time=00:22:37.81 bitrate=N/A speed=14.8x    frame=32705 fps=354 q=-0.0 size=N/A time=00:22:44.07 bitrate=N/A speed=14.8x    frame=32863 fps=354 q=-0.0 size=N/A time=00:22:50.66 bitrate=N/A speed=14.7x    frame=33044 fps=354 q=-0.0 size=N/A time=00:22:58.21 bitrate=N/A speed=14.7x    frame=33226 fps=354 q=-0.0 size=N/A time=00:23:05.80 bitrate=N/A speed=14.7x    frame=33400 fps=354 q=-0.0 size=N/A time=00:23:13.05 bitrate=N/A speed=14.7x    frame=33559 fps=353 q=-0.0 size=N/A time=00:23:19.68 bitrate=N/A speed=14.7x    frame=33713 fps=353 q=-0.0 size=N/A time=00:23:26.11 bitrate=N/A speed=14.7x    frame=33837 fps=352 q=-0.0 size=N/A time=00:23:31.28 bitrate=N/A speed=14.7x    frame=33980 fps=352 q=-0.0 size=N/A time=00:23:37.24 bitrate=N/A speed=14.7x    frame=34144 fps=352 q=-0.0 size=N/A time=00:23:44.08 bitrate=N/A speed=14.7x    frame=34303 fps=352 q=-0.0 size=N/A time=00:23:50.72 bitrate=N/A speed=14.7x    frame=34426 fps=351 q=-0.0 size=N/A time=00:23:55.85 bitrate=N/A speed=14.6x    frame=34603 fps=351 q=-0.0 size=N/A time=00:24:03.23 bitrate=N/A speed=14.6x    [Parsed_ssim_16 @ 00000217cfa29900] SSIM Y:0.994201 (22.366824) U:0.993999 (22.217779) V:0.993606 (21.941994) All:0.994068 (22.268294)
[out#0/null @ 00000217c252e740] video:14903KiB audio:271276KiB subtitle:0KiB other streams:0KiB global headers:0KiB muxing overhead: unknown
frame=34683 fps=351 q=-0.0 Lsize=N/A time=00:24:06.57 bitrate=N/A speed=14.6x    
